<?xml version="1.0" encoding="utf-8" ?>
<svg baseProfile="full" height="100%" version="1.1" viewBox="0,0,256,143" width="100%" xmlns="http://www.w3.org/2000/svg" xmlns:ev="http://www.w3.org/2001/xml-events" xmlns:xlink="http://www.w3.org/1999/xlink"><defs><clipPath id="c"><rect height="143" width="256" x="0" y="0" /></clipPath></defs><rect clip-path="url(#c)" fill="rgb(133,109,97)" fill-opacity="1.0" height="142" width="255" x="0" y="0" /><polygon clip-path="url(#c)" fill="rgb(255,255,255)" fill-opacity="0.498039215686" points="128,-83 143,51 -55,64" /><polygon clip-path="url(#c)" fill="rgb(255,255,255)" fill-opacity="0.498039215686" points="262,169 170,-17 277,-2" /><polygon clip-path="url(#c)" fill="rgb(255,255,255)" fill-opacity="0.498039215686" points="170,56 58,-5 286,-22" /><polygon clip-path="url(#c)" fill="rgb(4,0,0)" fill-opacity="0.498039215686" points="164,66 95,95 142,112" /><polygon clip-path="url(#c)" fill="rgb(255,255,255)" fill-opacity="0.498039215686" points="5,3 -14,146 59,172" /><polygon clip-path="url(#c)" fill="rgb(16,2,1)" fill-opacity="0.498039215686" points="193,48 209,47 208,26" /><polygon clip-path="url(#c)" fill="rgb(24,0,0)" fill-opacity="0.498039215686" points="52,128 97,66 17,87" /><polygon clip-path="url(#c)" fill="rgb(255,255,255)" fill-opacity="0.498039215686" points="321,111 179,172 248,46" /><polygon clip-path="url(#c)" fill="rgb(24,0,0)" fill-opacity="0.498039215686" points="162,125 233,48 231,87" /><polygon clip-path="url(#c)" fill="rgb(38,14,12)" fill-opacity="0.498039215686" points="119,42 146,26 118,69" /><polygon clip-path="url(#c)" fill="rgb(228,229,224)" fill-opacity="0.498039215686" points="99,115 222,108 177,178" /><polygon clip-path="url(#c)" fill="rgb(222,223,217)" fill-opacity="0.498039215686" points="8,103 168,125 89,239" /><polygon clip-path="url(#c)" fill="rgb(255,255,255)" fill-opacity="0.498039215686" points="16,-65 138,29 -15,47" /><polygon clip-path="url(#c)" fill="rgb(24,3,0)" fill-opacity="0.498039215686" points="222,91 160,69 190,117" /><polygon clip-path="url(#c)" fill="rgb(82,35,43)" fill-opacity="0.498039215686" points="68,32 29,83 71,38" /><polygon clip-path="url(#c)" fill="rgb(224,231,241)" fill-opacity="0.498039215686" points="155,93 166,66 176,122" /><polygon clip-path="url(#c)" fill="rgb(255,255,255)" fill-opacity="0.498039215686" points="162,48 69,-26 238,1" /><polygon clip-path="url(#c)" fill="rgb(255,255,255)" fill-opacity="0.498039215686" points="-13,151 66,23 1,-91" /><polygon clip-path="url(#c)" fill="rgb(255,255,255)" fill-opacity="0.498039215686" points="-44,113 20,90 67,187" /><polygon clip-path="url(#c)" fill="rgb(255,255,255)" fill-opacity="0.498039215686" points="169,3 264,70 249,-67" /><polygon clip-path="url(#c)" fill="rgb(255,255,255)" fill-opacity="0.498039215686" points="23,-12 181,-7 99,63" /><polygon clip-path="url(#c)" fill="rgb(41,3,0)" fill-opacity="0.498039215686" points="12,69 23,99 89,109" /><polygon clip-path="url(#c)" fill="rgb(212,216,227)" fill-opacity="0.498039215686" points="84,77 115,109 91,120" /><polygon clip-path="url(#c)" fill="rgb(40,10,2)" fill-opacity="0.498039215686" points="37,103 69,118 99,53" /><polygon clip-path="url(#c)" fill="rgb(230,232,244)" fill-opacity="0.498039215686" points="79,94 91,78 105,113" /><polygon clip-path="url(#c)" fill="rgb(50,10,18)" fill-opacity="0.498039215686" points="48,50 55,57 66,32" /><polygon clip-path="url(#c)" fill="rgb(34,9,2)" fill-opacity="0.498039215686" points="127,115 113,68 101,91" /><polygon clip-path="url(#c)" fill="rgb(250,213,195)" fill-opacity="0.498039215686" points="50,87 55,52 80,61" /><polygon clip-path="url(#c)" fill="rgb(75,31,2)" fill-opacity="0.498039215686" points="212,123 235,68 194,87" /><polygon clip-path="url(#c)" fill="rgb(26,9,2)" fill-opacity="0.498039215686" points="97,93 138,101 91,69" /><polygon clip-path="url(#c)" fill="rgb(200,157,141)" fill-opacity="0.498039215686" points="177,48 199,50 201,26" /><polygon clip-path="url(#c)" fill="rgb(241,243,242)" fill-opacity="0.498039215686" points="140,127 198,178 198,124" /><polygon clip-path="url(#c)" fill="rgb(137,86,57)" fill-opacity="0.498039215686" points="178,60 230,37 237,57" /><polygon clip-path="url(#c)" fill="rgb(210,193,183)" fill-opacity="0.498039215686" points="59,77 37,91 45,69" /><polygon clip-path="url(#c)" fill="rgb(12,0,2)" fill-opacity="0.498039215686" points="206,35 189,69 188,92" /><polygon clip-path="url(#c)" fill="rgb(31,3,0)" fill-opacity="0.498039215686" points="199,99 163,69 169,91" /><polygon clip-path="url(#c)" fill="rgb(255,255,255)" fill-opacity="0.498039215686" points="259,4 249,187 224,97" /><polygon clip-path="url(#c)" fill="rgb(11,0,0)" fill-opacity="0.498039215686" points="44,62 33,83 60,59" /><polygon clip-path="url(#c)" fill="rgb(255,255,255)" fill-opacity="0.498039215686" points="-4,118 30,45 8,-16" /><polygon clip-path="url(#c)" fill="rgb(217,187,179)" fill-opacity="0.498039215686" points="122,88 152,65 127,52" /><polygon clip-path="url(#c)" fill="rgb(242,246,249)" fill-opacity="0.498039215686" points="163,101 171,92 160,68" /><polygon clip-path="url(#c)" fill="rgb(150,148,127)" fill-opacity="0.498039215686" points="166,132 233,119 231,88" /><polygon clip-path="url(#c)" fill="rgb(219,223,234)" fill-opacity="0.498039215686" points="80,116 94,88 106,101" /><polygon clip-path="url(#c)" fill="rgb(255,255,255)" fill-opacity="0.498039215686" points="224,-8 168,58 125,-1" /><polygon clip-path="url(#c)" fill="rgb(54,26,23)" fill-opacity="0.498039215686" points="120,53 133,51 136,30" /><polygon clip-path="url(#c)" fill="rgb(129,126,109)" fill-opacity="0.498039215686" points="106,101 111,129 180,110" /><polygon clip-path="url(#c)" fill="rgb(217,175,159)" fill-opacity="0.498039215686" points="206,52 192,89 225,66" /><polygon clip-path="url(#c)" fill="rgb(255,255,255)" fill-opacity="0.498039215686" points="177,25 251,37 283,-50" /><polygon clip-path="url(#c)" fill="rgb(37,13,3)" fill-opacity="0.498039215686" points="134,98 160,61 168,69" /><polygon clip-path="url(#c)" fill="rgb(185,148,140)" fill-opacity="0.498039215686" points="144,68 97,74 79,39" /><polygon clip-path="url(#c)" fill="rgb(255,255,255)" fill-opacity="0.498039215686" points="97,56 163,-19 37,-13" /><polygon clip-path="url(#c)" fill="rgb(178,129,114)" fill-opacity="0.498039215686" points="175,64 122,56 155,38" /><polygon clip-path="url(#c)" fill="rgb(40,2,1)" fill-opacity="0.498039215686" points="46,88 86,79 80,103" /><polygon clip-path="url(#c)" fill="rgb(82,49,40)" fill-opacity="0.498039215686" points="168,77 164,53 151,52" /><polygon clip-path="url(#c)" fill="rgb(185,134,115)" fill-opacity="0.498039215686" points="45,89 25,65 14,76" /><polygon clip-path="url(#c)" fill="rgb(137,134,115)" fill-opacity="0.498039215686" points="213,101 204,133 170,105" /><polygon clip-path="url(#c)" fill="rgb(157,128,122)" fill-opacity="0.498039215686" points="97,64 117,35 144,30" /><polygon clip-path="url(#c)" fill="rgb(66,19,0)" fill-opacity="0.498039215686" points="235,64 220,84 235,57" /><polygon clip-path="url(#c)" fill="rgb(255,255,255)" fill-opacity="0.498039215686" points="-77,116 6,62 53,167" /><polygon clip-path="url(#c)" fill="rgb(9,0,1)" fill-opacity="0.498039215686" points="57,53 54,61 28,95" /><polygon clip-path="url(#c)" fill="rgb(40,7,0)" fill-opacity="0.498039215686" points="132,110 114,85 159,73" /><polygon clip-path="url(#c)" fill="rgb(223,225,220)" fill-opacity="0.498039215686" points="88,111 159,158 47,168" /><polygon clip-path="url(#c)" fill="rgb(215,217,206)" fill-opacity="0.498039215686" points="144,146 155,106 251,139" /><polygon clip-path="url(#c)" fill="rgb(38,11,2)" fill-opacity="0.498039215686" points="120,64 104,92 119,80" /><polygon clip-path="url(#c)" fill="rgb(47,15,0)" fill-opacity="0.498039215686" points="159,96 110,92 155,80" /><polygon clip-path="url(#c)" fill="rgb(44,11,20)" fill-opacity="0.498039215686" points="68,36 58,43 50,63" /><polygon clip-path="url(#c)" fill="rgb(233,199,187)" fill-opacity="0.498039215686" points="57,54 59,79 80,71" /><polygon clip-path="url(#c)" fill="rgb(195,178,186)" fill-opacity="0.498039215686" points="196,56 198,40 172,50" /><polygon clip-path="url(#c)" fill="rgb(255,255,255)" fill-opacity="0.498039215686" points="259,156 235,73 239,27" /><polygon clip-path="url(#c)" fill="rgb(38,11,16)" fill-opacity="0.498039215686" points="193,35 205,41 209,29" /><polygon clip-path="url(#c)" fill="rgb(109,109,83)" fill-opacity="0.498039215686" points="37,114 84,128 90,96" /><polygon clip-path="url(#c)" fill="rgb(25,0,0)" fill-opacity="0.498039215686" points="199,92 183,100 178,78" /><polygon clip-path="url(#c)" fill="rgb(255,255,255)" fill-opacity="0.498039215686" points="179,46 139,30 204,-75" /><polygon clip-path="url(#c)" fill="rgb(224,228,239)" fill-opacity="0.498039215686" points="166,109 179,97 157,79" /><polygon clip-path="url(#c)" fill="rgb(206,166,167)" fill-opacity="0.498039215686" points="92,72 96,45 113,76" /><polygon clip-path="url(#c)" fill="rgb(210,168,154)" fill-opacity="0.498039215686" points="137,63 116,82 114,93" /><polygon clip-path="url(#c)" fill="rgb(249,250,255)" fill-opacity="0.498039215686" points="87,99 89,76 99,95" /><polygon clip-path="url(#c)" fill="rgb(169,102,85)" fill-opacity="0.498039215686" points="229,51 201,69 221,75" /><polygon clip-path="url(#c)" fill="rgb(41,0,0)" fill-opacity="0.498039215686" points="203,53 198,68 196,50" /><polygon clip-path="url(#c)" fill="rgb(255,255,255)" fill-opacity="0.498039215686" points="224,89 288,38 256,152" /><polygon clip-path="url(#c)" fill="rgb(255,255,255)" fill-opacity="0.498039215686" points="-37,-1 58,-2 -2,106" /><polygon clip-path="url(#c)" fill="rgb(56,14,0)" fill-opacity="0.498039215686" points="231,81 236,66 183,107" /><polygon clip-path="url(#c)" fill="rgb(108,107,87)" fill-opacity="0.498039215686" points="148,102 102,104 104,127" /><polygon clip-path="url(#c)" fill="rgb(255,255,255)" fill-opacity="0.498039215686" points="271,-45 253,74 219,24" /><polygon clip-path="url(#c)" fill="rgb(125,76,59)" fill-opacity="0.498039215686" points="204,74 212,79 195,85" /><polygon clip-path="url(#c)" fill="rgb(75,30,11)" fill-opacity="0.498039215686" points="204,83 236,60 230,86" /><polygon clip-path="url(#c)" fill="rgb(162,105,88)" fill-opacity="0.498039215686" points="62,84 89,56 42,87" /><polygon clip-path="url(#c)" fill="rgb(142,83,67)" fill-opacity="0.498039215686" points="149,74 157,59 137,80" /><polygon clip-path="url(#c)" fill="rgb(203,148,117)" fill-opacity="0.498039215686" points="210,75 213,30 225,34" /><polygon clip-path="url(#c)" fill="rgb(108,79,75)" fill-opacity="0.498039215686" points="81,57 86,41 95,65" /><polygon clip-path="url(#c)" fill="rgb(137,107,99)" fill-opacity="0.498039215686" points="94,76 113,80 93,61" /><polygon clip-path="url(#c)" fill="rgb(255,255,255)" fill-opacity="0.498039215686" points="-1,87 35,107 5,187" /><polygon clip-path="url(#c)" fill="rgb(200,162,153)" fill-opacity="0.498039215686" points="80,45 64,53 77,71" /><polygon clip-path="url(#c)" fill="rgb(209,198,180)" fill-opacity="0.498039215686" points="205,50 222,30 206,39" /><polygon clip-path="url(#c)" fill="rgb(92,87,68)" fill-opacity="0.498039215686" points="52,108 38,110 68,122" /><polygon clip-path="url(#c)" fill="rgb(35,19,22)" fill-opacity="0.498039215686" points="121,48 142,36 117,64" /><polygon clip-path="url(#c)" fill="rgb(30,5,1)" fill-opacity="0.498039215686" points="195,103 168,86 164,74" /><polygon clip-path="url(#c)" fill="rgb(169,172,153)" fill-opacity="0.498039215686" points="173,99 115,118 210,127" /><polygon clip-path="url(#c)" fill="rgb(219,196,178)" fill-opacity="0.498039215686" points="20,78 52,52 50,31" /><polygon clip-path="url(#c)" fill="rgb(241,243,242)" fill-opacity="0.498039215686" points="163,122 152,161 219,144" /><polygon clip-path="url(#c)" fill="rgb(255,255,255)" fill-opacity="0.498039215686" points="229,36 249,83 290,-32" /><polygon clip-path="url(#c)" fill="rgb(55,14,8)" fill-opacity="0.498039215686" points="108,102 122,82 135,77" /><polygon clip-path="url(#c)" fill="rgb(144,146,125)" fill-opacity="0.498039215686" points="70,125 38,113 39,130" /><polygon clip-path="url(#c)" fill="rgb(21,1,3)" fill-opacity="0.498039215686" points="210,29 198,50 202,36" /><polygon clip-path="url(#c)" fill="rgb(187,139,127)" fill-opacity="0.498039215686" points="135,33 150,34 147,75" /><polygon clip-path="url(#c)" fill="rgb(29,1,0)" fill-opacity="0.498039215686" points="229,72 182,95 224,89" /><polygon clip-path="url(#c)" fill="rgb(173,177,162)" fill-opacity="0.498039215686" points="89,99 116,118 58,139" /><polygon clip-path="url(#c)" fill="rgb(69,21,17)" fill-opacity="0.498039215686" points="62,88 78,66 82,76" /><polygon clip-path="url(#c)" fill="rgb(45,16,2)" fill-opacity="0.498039215686" points="116,108 127,90 91,82" /><polygon clip-path="url(#c)" fill="rgb(250,252,251)" fill-opacity="0.498039215686" points="171,97 175,94 158,78" /><polygon clip-path="url(#c)" fill="rgb(203,205,184)" fill-opacity="0.498039215686" points="235,161 184,128 237,105" /><polygon clip-path="url(#c)" fill="rgb(32,18,7)" fill-opacity="0.498039215686" points="137,103 118,95 119,110" /><polygon clip-path="url(#c)" fill="rgb(42,37,33)" fill-opacity="0.498039215686" points="137,31 139,36 132,45" /><polygon clip-path="url(#c)" fill="rgb(255,255,255)" fill-opacity="0.498039215686" points="-44,-19 29,47 157,6" /><polygon clip-path="url(#c)" fill="rgb(182,134,112)" fill-opacity="0.498039215686" points="32,72 16,88 20,64" /><polygon clip-path="url(#c)" fill="rgb(193,190,173)" fill-opacity="0.498039215686" points="175,116 157,141 89,124" /><polygon clip-path="url(#c)" fill="rgb(210,199,195)" fill-opacity="0.498039215686" points="81,54 69,36 54,68" /><polygon clip-path="url(#c)" fill="rgb(249,250,252)" fill-opacity="0.498039215686" points="175,97 158,84 167,85" /><polygon clip-path="url(#c)" fill="rgb(217,217,207)" fill-opacity="0.498039215686" points="96,125 36,143 144,142" /><polygon clip-path="url(#c)" fill="rgb(203,193,204)" fill-opacity="0.498039215686" points="58,50 54,63 73,34" /><polygon clip-path="url(#c)" fill="rgb(255,255,255)" fill-opacity="0.498039215686" points="231,152 254,65 288,165" /><polygon clip-path="url(#c)" fill="rgb(19,0,0)" fill-opacity="0.498039215686" points="35,83 42,67 51,63" /><polygon clip-path="url(#c)" fill="rgb(158,126,139)" fill-opacity="0.498039215686" points="181,47 159,73 185,68" /><polygon clip-path="url(#c)" fill="rgb(0,0,0)" fill-opacity="0.498039215686" points="190,72 201,64 196,57" /><polygon clip-path="url(#c)" fill="rgb(176,165,169)" fill-opacity="0.498039215686" points="124,58 141,42 126,66" /><polygon clip-path="url(#c)" fill="rgb(187,145,131)" fill-opacity="0.498039215686" points="187,64 206,30 184,36" /><polygon clip-path="url(#c)" fill="rgb(212,191,196)" fill-opacity="0.498039215686" points="94,56 104,42 108,68" /><polygon clip-path="url(#c)" fill="rgb(217,180,171)" fill-opacity="0.498039215686" points="124,63 123,78 131,75" /><polygon clip-path="url(#c)" fill="rgb(254,255,255)" fill-opacity="0.498039215686" points="159,88 163,68 167,93" /><polygon clip-path="url(#c)" fill="rgb(16,0,0)" fill-opacity="0.498039215686" points="45,90 74,85 43,109" /><polygon clip-path="url(#c)" fill="rgb(0,0,0)" fill-opacity="0.498039215686" points="206,39 200,44 203,35" /><polygon clip-path="url(#c)" fill="rgb(255,255,255)" fill-opacity="0.498039215686" points="123,15 59,0 95,53" /><polygon clip-path="url(#c)" fill="rgb(39,6,1)" fill-opacity="0.498039215686" points="96,58 82,69 84,80" /><polygon clip-path="url(#c)" fill="rgb(51,15,0)" fill-opacity="0.498039215686" points="34,98 29,104 21,81" /><polygon clip-path="url(#c)" fill="rgb(146,96,61)" fill-opacity="0.498039215686" points="182,62 192,75 174,79" /><polygon clip-path="url(#c)" fill="rgb(25,1,0)" fill-opacity="0.498039215686" points="193,64 192,90 183,94" /><polygon clip-path="url(#c)" fill="rgb(27,8,4)" fill-opacity="0.498039215686" points="104,81 93,85 103,97" /><polygon clip-path="url(#c)" fill="rgb(182,155,148)" fill-opacity="0.498039215686" points="41,88 33,101 41,82" /><polygon clip-path="url(#c)" fill="rgb(124,119,97)" fill-opacity="0.498039215686" points="115,107 122,121 157,109" /><polygon clip-path="url(#c)" fill="rgb(170,116,82)" fill-opacity="0.498039215686" points="218,73 227,47 234,49" /><polygon clip-path="url(#c)" fill="rgb(160,123,114)" fill-opacity="0.498039215686" points="113,77 110,82 110,65" /><polygon clip-path="url(#c)" fill="rgb(88,72,56)" fill-opacity="0.498039215686" points="26,96 42,100 27,102" /><polygon clip-path="url(#c)" fill="rgb(127,129,116)" fill-opacity="0.498039215686" points="150,109 164,108 157,85" /><polygon clip-path="url(#c)" fill="rgb(255,255,255)" fill-opacity="0.498039215686" points="352,45 237,59 229,98" /><polygon clip-path="url(#c)" fill="rgb(25,2,8)" fill-opacity="0.498039215686" points="71,34 46,66 62,38" /><polygon clip-path="url(#c)" fill="rgb(255,255,255)" fill-opacity="0.498039215686" points="15,72 -21,28 16,110" /><polygon clip-path="url(#c)" fill="rgb(17,1,2)" fill-opacity="0.498039215686" points="149,98 160,75 116,93" /><polygon clip-path="url(#c)" fill="rgb(255,255,255)" fill-opacity="0.498039215686" points="165,-36 212,31 283,15" /><polygon clip-path="url(#c)" fill="rgb(148,107,89)" fill-opacity="0.498039215686" points="130,32 135,35 114,48" /><polygon clip-path="url(#c)" fill="rgb(20,0,1)" fill-opacity="0.498039215686" points="47,64 62,62 34,65" /><polygon clip-path="url(#c)" fill="rgb(69,15,3)" fill-opacity="0.498039215686" points="161,75 146,72 165,57" /><polygon clip-path="url(#c)" fill="rgb(112,111,83)" fill-opacity="0.498039215686" points="219,98 200,118 168,114" /><polygon clip-path="url(#c)" fill="rgb(210,179,194)" fill-opacity="0.498039215686" points="38,60 47,37 60,38" /><polygon clip-path="url(#c)" fill="rgb(99,98,78)" fill-opacity="0.498039215686" points="138,107 153,109 153,90" /><polygon clip-path="url(#c)" fill="rgb(207,174,155)" fill-opacity="0.498039215686" points="45,46 59,32 53,50" /><polygon clip-path="url(#c)" fill="rgb(161,106,99)" fill-opacity="0.498039215686" points="62,58 63,64 67,45" /><polygon clip-path="url(#c)" fill="rgb(195,157,168)" fill-opacity="0.498039215686" points="51,60 43,60 33,51" /><polygon clip-path="url(#c)" fill="rgb(255,255,255)" fill-opacity="0.498039215686" points="147,33 255,24 47,-30" /><polygon clip-path="url(#c)" fill="rgb(232,226,240)" fill-opacity="0.498039215686" points="210,56 213,61 195,74" /><polygon clip-path="url(#c)" fill="rgb(179,141,118)" fill-opacity="0.498039215686" points="141,42 158,56 154,35" /><polygon clip-path="url(#c)" fill="rgb(137,106,101)" fill-opacity="0.498039215686" points="70,66 72,77 91,51" /><polygon clip-path="url(#c)" fill="rgb(188,158,166)" fill-opacity="0.498039215686" points="41,80 35,90 63,73" /><polygon clip-path="url(#c)" fill="rgb(67,25,27)" fill-opacity="0.498039215686" points="53,48 50,63 63,36" /><polygon clip-path="url(#c)" fill="rgb(161,163,152)" fill-opacity="0.498039215686" points="157,110 201,127 159,92" /><polygon clip-path="url(#c)" fill="rgb(133,75,29)" fill-opacity="0.498039215686" points="234,56 225,64 225,76" /><polygon clip-path="url(#c)" fill="rgb(129,106,100)" fill-opacity="0.498039215686" points="145,74 117,80 131,84" /><polygon clip-path="url(#c)" fill="rgb(165,117,94)" fill-opacity="0.498039215686" points="206,71 221,77 208,79" /><polygon clip-path="url(#c)" fill="rgb(161,138,146)" fill-opacity="0.498039215686" points="61,48 48,58 38,68" /><polygon clip-path="url(#c)" fill="rgb(202,160,138)" fill-opacity="0.498039215686" points="222,56 208,36 218,31" /><polygon clip-path="url(#c)" fill="rgb(145,109,93)" fill-opacity="0.498039215686" points="135,80 143,83 138,66" /><polygon clip-path="url(#c)" fill="rgb(113,114,98)" fill-opacity="0.498039215686" points="188,102 174,98 182,122" /><polygon clip-path="url(#c)" fill="rgb(255,255,255)" fill-opacity="0.498039215686" points="167,49 119,1 223,-18" /><polygon clip-path="url(#c)" fill="rgb(162,155,137)" fill-opacity="0.498039215686" points="206,127 226,107 167,120" /><polygon clip-path="url(#c)" fill="rgb(28,0,0)" fill-opacity="0.498039215686" points="89,77 57,88 75,102" /><polygon clip-path="url(#c)" fill="rgb(243,237,241)" fill-opacity="0.498039215686" points="123,62 134,50 139,47" /><polygon clip-path="url(#c)" fill="rgb(255,255,255)" fill-opacity="0.498039215686" points="191,33 247,-32 134,29" /><polygon clip-path="url(#c)" fill="rgb(255,255,255)" fill-opacity="0.498039215686" points="170,45 165,55 163,39" /><polygon clip-path="url(#c)" fill="rgb(172,147,153)" fill-opacity="0.498039215686" points="70,66 83,56 76,51" /><polygon clip-path="url(#c)" fill="rgb(38,2,2)" fill-opacity="0.498039215686" points="109,85 119,72 115,84" /><polygon clip-path="url(#c)" fill="rgb(191,144,126)" fill-opacity="0.498039215686" points="189,56 193,59 201,44" /><polygon clip-path="url(#c)" fill="rgb(31,14,20)" fill-opacity="0.498039215686" points="57,44 67,34 64,43" /><polygon clip-path="url(#c)" fill="rgb(165,160,141)" fill-opacity="0.498039215686" points="132,133 165,106 103,123" /><polygon clip-path="url(#c)" fill="rgb(81,80,59)" fill-opacity="0.498039215686" points="109,100 109,110 136,111" /><polygon clip-path="url(#c)" fill="rgb(104,105,107)" fill-opacity="0.498039215686" points="83,89 88,99 77,96" /><polygon clip-path="url(#c)" fill="rgb(196,197,202)" fill-opacity="0.498039215686" points="85,94 90,121 103,104" /><polygon clip-path="url(#c)" fill="rgb(113,78,84)" fill-opacity="0.498039215686" points="15,79 32,83 18,90" /><polygon clip-path="url(#c)" fill="rgb(51,13,2)" fill-opacity="0.498039215686" points="32,103 55,114 77,90" /><polygon clip-path="url(#c)" fill="rgb(129,73,46)" fill-opacity="0.498039215686" points="167,69 180,68 168,79" /><polygon clip-path="url(#c)" fill="rgb(118,81,65)" fill-opacity="0.498039215686" points="133,52 132,54 132,63" /><polygon clip-path="url(#c)" fill="rgb(208,172,136)" fill-opacity="0.498039215686" points="52,69 34,93 47,79" /><polygon clip-path="url(#c)" fill="rgb(140,96,69)" fill-opacity="0.498039215686" points="171,63 172,54 177,58" /><polygon clip-path="url(#c)" fill="rgb(161,106,85)" fill-opacity="0.498039215686" points="154,44 164,53 158,41" /><polygon clip-path="url(#c)" fill="rgb(255,255,255)" fill-opacity="0.498039215686" points="32,105 36,166 -48,105" /><polygon clip-path="url(#c)" fill="rgb(115,75,49)" fill-opacity="0.498039215686" points="225,85 234,78 215,102" /><polygon clip-path="url(#c)" fill="rgb(33,2,0)" fill-opacity="0.498039215686" points="39,94 44,106 60,82" /><polygon clip-path="url(#c)" fill="rgb(157,155,134)" fill-opacity="0.498039215686" points="69,115 40,133 75,125" /><polygon clip-path="url(#c)" fill="rgb(214,177,161)" fill-opacity="0.498039215686" points="36,77 24,71 21,60" /><polygon clip-path="url(#c)" fill="rgb(212,213,208)" fill-opacity="0.498039215686" points="230,84 226,94 239,115" /><polygon clip-path="url(#c)" fill="rgb(175,128,118)" fill-opacity="0.498039215686" points="109,60 134,35 134,30" /><polygon clip-path="url(#c)" fill="rgb(255,255,255)" fill-opacity="0.498039215686" points="-52,-69 72,9 4,76" /></svg>