<?xml version="1.0" encoding="utf-8" ?>
<svg baseProfile="full" height="100%" version="1.1" viewBox="0,0,256,104" width="100%" xmlns="http://www.w3.org/2000/svg" xmlns:ev="http://www.w3.org/2001/xml-events" xmlns:xlink="http://www.w3.org/1999/xlink"><defs><clipPath id="c"><rect height="104" width="256" x="0" y="0" /></clipPath></defs><rect clip-path="url(#c)" fill="rgb(149,149,149)" fill-opacity="1.0" height="103" width="255" x="0" y="0" /><polygon clip-path="url(#c)" fill="rgb(17,17,17)" fill-opacity="0.498039215686" points="84,77 36,82 82,-21" /><polygon clip-path="url(#c)" fill="rgb(28,28,28)" fill-opacity="0.498039215686" points="113,150 131,17 231,31" /><polygon clip-path="url(#c)" fill="rgb(13,13,13)" fill-opacity="0.498039215686" points="-18,44 71,39 51,20" /><polygon clip-path="url(#c)" fill="rgb(13,13,13)" fill-opacity="0.498039215686" points="166,32 190,-5 162,0" /><polygon clip-path="url(#c)" fill="rgb(36,36,36)" fill-opacity="0.498039215686" points="85,72 66,108 107,115" /><polygon clip-path="url(#c)" fill="rgb(30,30,30)" fill-opacity="0.498039215686" points="25,52 38,79 62,81" /><polygon clip-path="url(#c)" fill="rgb(18,18,18)" fill-opacity="0.498039215686" points="65,68 50,55 64,24" /><polygon clip-path="url(#c)" fill="rgb(63,63,63)" fill-opacity="0.498039215686" points="134,1 61,-22 121,71" /><polygon clip-path="url(#c)" fill="rgb(53,53,53)" fill-opacity="0.498039215686" points="259,90 288,2 208,43" /><polygon clip-path="url(#c)" fill="rgb(33,33,33)" fill-opacity="0.498039215686" points="85,103 101,80 62,73" /><polygon clip-path="url(#c)" fill="rgb(220,220,220)" fill-opacity="0.498039215686" points="18,78 41,75 76,93" /><polygon clip-path="url(#c)" fill="rgb(0,0,0)" fill-opacity="0.498039215686" points="193,25 221,24 175,84" /><polygon clip-path="url(#c)" fill="rgb(41,41,41)" fill-opacity="0.498039215686" points="227,64 178,81 189,86" /><polygon clip-path="url(#c)" fill="rgb(234,234,234)" fill-opacity="0.498039215686" points="182,99 170,86 211,78" /><polygon clip-path="url(#c)" fill="rgb(66,66,66)" fill-opacity="0.498039215686" points="218,139 215,83 265,58" /><polygon clip-path="url(#c)" fill="rgb(33,33,33)" fill-opacity="0.498039215686" points="221,67 219,49 198,84" /><polygon clip-path="url(#c)" fill="rgb(173,173,173)" fill-opacity="0.498039215686" points="146,48 177,24 144,84" /><polygon clip-path="url(#c)" fill="rgb(112,112,112)" fill-opacity="0.498039215686" points="167,85 96,109 94,36" /><polygon clip-path="url(#c)" fill="rgb(230,230,230)" fill-opacity="0.498039215686" points="239,49 219,83 214,69" /><polygon clip-path="url(#c)" fill="rgb(14,14,14)" fill-opacity="0.498039215686" points="184,27 157,58 216,26" /><polygon clip-path="url(#c)" fill="rgb(144,144,144)" fill-opacity="0.498039215686" points="153,69 91,79 121,123" /><polygon clip-path="url(#c)" fill="rgb(130,130,130)" fill-opacity="0.498039215686" points="194,84 161,61 185,54" /><polygon clip-path="url(#c)" fill="rgb(21,21,21)" fill-opacity="0.498039215686" points="165,143 172,45 145,82" /><polygon clip-path="url(#c)" fill="rgb(101,101,101)" fill-opacity="0.498039215686" points="-11,45 -7,88 53,104" /><polygon clip-path="url(#c)" fill="rgb(64,64,64)" fill-opacity="0.498039215686" points="146,18 111,17 145,-40" /><polygon clip-path="url(#c)" fill="rgb(149,149,149)" fill-opacity="0.498039215686" points="41,43 70,76 41,69" /><polygon clip-path="url(#c)" fill="rgb(207,207,207)" fill-opacity="0.498039215686" points="166,93 164,80 208,85" /><polygon clip-path="url(#c)" fill="rgb(147,147,147)" fill-opacity="0.498039215686" points="61,24 90,50 99,-5" /><polygon clip-path="url(#c)" fill="rgb(24,24,24)" fill-opacity="0.498039215686" points="74,38 53,20 13,34" /><polygon clip-path="url(#c)" fill="rgb(197,197,197)" fill-opacity="0.498039215686" points="155,44 142,79 152,81" /><polygon clip-path="url(#c)" fill="rgb(75,75,75)" fill-opacity="0.498039215686" points="-24,22 40,30 -16,61" /><polygon clip-path="url(#c)" fill="rgb(43,43,43)" fill-opacity="0.498039215686" points="219,41 262,44 235,55" /><polygon clip-path="url(#c)" fill="rgb(96,96,96)" fill-opacity="0.498039215686" points="235,-24 167,19 258,23" /><polygon clip-path="url(#c)" fill="rgb(44,44,44)" fill-opacity="0.498039215686" points="83,11 52,-23 78,27" /><polygon clip-path="url(#c)" fill="rgb(13,13,13)" fill-opacity="0.498039215686" points="199,80 165,80 162,68" /><polygon clip-path="url(#c)" fill="rgb(11,11,11)" fill-opacity="0.498039215686" points="55,55 77,34 58,68" /><polygon clip-path="url(#c)" fill="rgb(191,191,191)" fill-opacity="0.498039215686" points="84,51 95,77 96,49" /><polygon clip-path="url(#c)" fill="rgb(11,11,11)" fill-opacity="0.498039215686" points="199,25 225,41 216,53" /><polygon clip-path="url(#c)" fill="rgb(123,123,123)" fill-opacity="0.498039215686" points="148,56 128,10 176,28" /><polygon clip-path="url(#c)" fill="rgb(93,93,93)" fill-opacity="0.498039215686" points="25,37 4,11 -26,63" /><polygon clip-path="url(#c)" fill="rgb(21,21,21)" fill-opacity="0.498039215686" points="146,-28 182,-6 172,21" /><polygon clip-path="url(#c)" fill="rgb(135,135,135)" fill-opacity="0.498039215686" points="71,81 45,67 78,57" /><polygon clip-path="url(#c)" fill="rgb(22,22,22)" fill-opacity="0.498039215686" points="86,-12 73,26 72,5" /><polygon clip-path="url(#c)" fill="rgb(89,89,89)" fill-opacity="0.498039215686" points="173,104 240,69 221,119" /><polygon clip-path="url(#c)" fill="rgb(15,15,15)" fill-opacity="0.498039215686" points="84,56 89,72 67,81" /><polygon clip-path="url(#c)" fill="rgb(120,120,120)" fill-opacity="0.498039215686" points="270,83 247,54 203,92" /><polygon clip-path="url(#c)" fill="rgb(27,27,27)" fill-opacity="0.498039215686" points="248,44 242,53 273,56" /><polygon clip-path="url(#c)" fill="rgb(12,12,12)" fill-opacity="0.498039215686" points="47,19 26,28 77,36" /><polygon clip-path="url(#c)" fill="rgb(124,124,124)" fill-opacity="0.498039215686" points="175,75 156,37 190,73" /><polygon clip-path="url(#c)" fill="rgb(143,143,143)" fill-opacity="0.498039215686" points="259,42 211,28 172,-11" /><polygon clip-path="url(#c)" fill="rgb(202,202,202)" fill-opacity="0.498039215686" points="237,56 182,98 240,66" /><polygon clip-path="url(#c)" fill="rgb(209,209,209)" fill-opacity="0.498039215686" points="199,82 202,91 223,70" /><polygon clip-path="url(#c)" fill="rgb(204,204,204)" fill-opacity="0.498039215686" points="75,77 65,97 37,84" /><polygon clip-path="url(#c)" fill="rgb(10,10,10)" fill-opacity="0.498039215686" points="154,82 161,56 180,77" /><polygon clip-path="url(#c)" fill="rgb(129,129,129)" fill-opacity="0.498039215686" points="197,25 169,32 183,-7" /><polygon clip-path="url(#c)" fill="rgb(100,100,100)" fill-opacity="0.498039215686" points="60,106 15,104 -5,55" /><polygon clip-path="url(#c)" fill="rgb(115,115,115)" fill-opacity="0.498039215686" points="26,52 53,38 14,30" /><polygon clip-path="url(#c)" fill="rgb(200,200,200)" fill-opacity="0.498039215686" points="12,46 44,88 11,63" /><polygon clip-path="url(#c)" fill="rgb(29,29,29)" fill-opacity="0.498039215686" points="66,80 73,75 41,74" /><polygon clip-path="url(#c)" fill="rgb(100,100,100)" fill-opacity="0.498039215686" points="-3,16 40,-32 54,26" /><polygon clip-path="url(#c)" fill="rgb(96,96,96)" fill-opacity="0.498039215686" points="91,29 164,86 98,68" /><polygon clip-path="url(#c)" fill="rgb(165,165,165)" fill-opacity="0.498039215686" points="64,14 74,36 102,60" /><polygon clip-path="url(#c)" fill="rgb(89,89,89)" fill-opacity="0.498039215686" points="83,99 48,113 40,93" /><polygon clip-path="url(#c)" fill="rgb(129,129,129)" fill-opacity="0.498039215686" points="224,101 271,111 272,72" /><polygon clip-path="url(#c)" fill="rgb(70,70,70)" fill-opacity="0.498039215686" points="38,39 32,54 33,62" /><polygon clip-path="url(#c)" fill="rgb(55,55,55)" fill-opacity="0.498039215686" points="27,66 44,79 39,57" /><polygon clip-path="url(#c)" fill="rgb(179,179,179)" fill-opacity="0.498039215686" points="51,73 53,35 44,70" /><polygon clip-path="url(#c)" fill="rgb(108,108,108)" fill-opacity="0.498039215686" points="152,101 130,61 145,74" /><polygon clip-path="url(#c)" fill="rgb(110,110,110)" fill-opacity="0.498039215686" points="216,56 203,38 196,66" /><polygon clip-path="url(#c)" fill="rgb(88,88,88)" fill-opacity="0.498039215686" points="197,39 183,45 208,43" /><polygon clip-path="url(#c)" fill="rgb(9,9,9)" fill-opacity="0.498039215686" points="176,35 194,70 198,48" /><polygon clip-path="url(#c)" fill="rgb(10,10,10)" fill-opacity="0.498039215686" points="56,33 72,50 55,60" /><polygon clip-path="url(#c)" fill="rgb(170,170,170)" fill-opacity="0.498039215686" points="227,47 250,69 219,64" /><polygon clip-path="url(#c)" fill="rgb(163,163,163)" fill-opacity="0.498039215686" points="159,57 144,58 164,21" /><polygon clip-path="url(#c)" fill="rgb(45,45,45)" fill-opacity="0.498039215686" points="186,113 156,82 152,119" /><polygon clip-path="url(#c)" fill="rgb(37,37,37)" fill-opacity="0.498039215686" points="14,37 12,44 -30,44" /><polygon clip-path="url(#c)" fill="rgb(16,16,16)" fill-opacity="0.498039215686" points="61,25 36,25 24,41" /><polygon clip-path="url(#c)" fill="rgb(27,27,27)" fill-opacity="0.498039215686" points="138,16 147,-5 143,-20" /><polygon clip-path="url(#c)" fill="rgb(194,194,194)" fill-opacity="0.498039215686" points="26,73 26,26 15,63" /><polygon clip-path="url(#c)" fill="rgb(158,158,158)" fill-opacity="0.498039215686" points="80,-17 85,27 106,6" /><polygon clip-path="url(#c)" fill="rgb(25,25,25)" fill-opacity="0.498039215686" points="188,82 203,78 191,75" /><polygon clip-path="url(#c)" fill="rgb(98,98,98)" fill-opacity="0.498039215686" points="90,97 101,62 103,99" /><polygon clip-path="url(#c)" fill="rgb(101,101,101)" fill-opacity="0.498039215686" points="251,43 256,5 224,20" /><polygon clip-path="url(#c)" fill="rgb(17,17,17)" fill-opacity="0.498039215686" points="63,33 69,30 88,63" /><polygon clip-path="url(#c)" fill="rgb(144,144,144)" fill-opacity="0.498039215686" points="196,77 174,71 201,65" /><polygon clip-path="url(#c)" fill="rgb(99,99,99)" fill-opacity="0.498039215686" points="8,39 20,27 42,46" /><polygon clip-path="url(#c)" fill="rgb(118,118,118)" fill-opacity="0.498039215686" points="163,77 158,79 187,124" /><polygon clip-path="url(#c)" fill="rgb(137,137,137)" fill-opacity="0.498039215686" points="198,39 212,58 200,65" /><polygon clip-path="url(#c)" fill="rgb(87,87,87)" fill-opacity="0.498039215686" points="215,16 244,16 230,-11" /><polygon clip-path="url(#c)" fill="rgb(176,176,176)" fill-opacity="0.498039215686" points="71,18 50,-4 64,28" /><polygon clip-path="url(#c)" fill="rgb(206,206,206)" fill-opacity="0.498039215686" points="229,62 224,50 213,83" /><polygon clip-path="url(#c)" fill="rgb(72,72,72)" fill-opacity="0.498039215686" points="137,18 110,-14 113,46" /><polygon clip-path="url(#c)" fill="rgb(145,145,145)" fill-opacity="0.498039215686" points="20,45 32,25 3,1" /><polygon clip-path="url(#c)" fill="rgb(96,96,96)" fill-opacity="0.498039215686" points="25,33 25,38 -1,32" /><polygon clip-path="url(#c)" fill="rgb(123,123,123)" fill-opacity="0.498039215686" points="231,61 234,51 244,74" /><polygon clip-path="url(#c)" fill="rgb(153,153,153)" fill-opacity="0.498039215686" points="72,24 22,5 41,22" /><polygon clip-path="url(#c)" fill="rgb(170,170,170)" fill-opacity="0.498039215686" points="127,93 104,103 149,115" /><polygon clip-path="url(#c)" fill="rgb(25,25,25)" fill-opacity="0.498039215686" points="255,56 241,49 270,44" /><polygon clip-path="url(#c)" fill="rgb(216,216,216)" fill-opacity="0.498039215686" points="34,83 70,93 58,79" /><polygon clip-path="url(#c)" fill="rgb(136,136,136)" fill-opacity="0.498039215686" points="224,11 236,41 194,18" /><polygon clip-path="url(#c)" fill="rgb(61,61,61)" fill-opacity="0.498039215686" points="203,6 181,-11 229,-5" /><polygon clip-path="url(#c)" fill="rgb(11,11,11)" fill-opacity="0.498039215686" points="194,25 191,45 168,39" /><polygon clip-path="url(#c)" fill="rgb(85,85,85)" fill-opacity="0.498039215686" points="35,-9 11,-5 21,10" /><polygon clip-path="url(#c)" fill="rgb(39,39,39)" fill-opacity="0.498039215686" points="82,86 73,102 93,108" /><polygon clip-path="url(#c)" fill="rgb(93,93,93)" fill-opacity="0.498039215686" points="85,35 120,76 101,21" /><polygon clip-path="url(#c)" fill="rgb(124,124,124)" fill-opacity="0.498039215686" points="76,52 60,60 66,72" /><polygon clip-path="url(#c)" fill="rgb(22,22,22)" fill-opacity="0.498039215686" points="166,42 186,33 161,60" /><polygon clip-path="url(#c)" fill="rgb(168,168,168)" fill-opacity="0.498039215686" points="55,37 45,36 45,66" /><polygon clip-path="url(#c)" fill="rgb(225,225,225)" fill-opacity="0.498039215686" points="53,86 72,83 52,95" /><polygon clip-path="url(#c)" fill="rgb(70,70,70)" fill-opacity="0.498039215686" points="115,59 99,61 97,50" /><polygon clip-path="url(#c)" fill="rgb(113,113,113)" fill-opacity="0.498039215686" points="180,66 164,59 184,39" /><polygon clip-path="url(#c)" fill="rgb(128,128,128)" fill-opacity="0.498039215686" points="130,4 113,-24 165,41" /><polygon clip-path="url(#c)" fill="rgb(142,142,142)" fill-opacity="0.498039215686" points="187,22 165,44 201,-8" /><polygon clip-path="url(#c)" fill="rgb(8,8,8)" fill-opacity="0.498039215686" points="205,23 219,49 198,28" /><polygon clip-path="url(#c)" fill="rgb(13,13,13)" fill-opacity="0.498039215686" points="82,61 72,74 90,76" /><polygon clip-path="url(#c)" fill="rgb(47,47,47)" fill-opacity="0.498039215686" points="27,42 28,66 29,45" /><polygon clip-path="url(#c)" fill="rgb(21,21,21)" fill-opacity="0.498039215686" points="34,42 34,46 56,15" /><polygon clip-path="url(#c)" fill="rgb(199,199,199)" fill-opacity="0.498039215686" points="40,87 16,58 44,81" /><polygon clip-path="url(#c)" fill="rgb(106,106,106)" fill-opacity="0.498039215686" points="251,113 242,82 256,72" /><polygon clip-path="url(#c)" fill="rgb(18,18,18)" fill-opacity="0.498039215686" points="178,9 170,14 159,-9" /><polygon clip-path="url(#c)" fill="rgb(133,133,133)" fill-opacity="0.498039215686" points="135,4 123,8 131,-1" /><polygon clip-path="url(#c)" fill="rgb(17,17,17)" fill-opacity="0.498039215686" points="178,-12 173,16 166,4" /><polygon clip-path="url(#c)" fill="rgb(20,20,20)" fill-opacity="0.498039215686" points="41,80 36,59 52,79" /><polygon clip-path="url(#c)" fill="rgb(123,123,123)" fill-opacity="0.498039215686" points="65,72 78,66 84,55" /><polygon clip-path="url(#c)" fill="rgb(121,121,121)" fill-opacity="0.498039215686" points="41,82 30,86 55,100" /><polygon clip-path="url(#c)" fill="rgb(116,116,116)" fill-opacity="0.498039215686" points="58,9 70,-15 67,17" /><polygon clip-path="url(#c)" fill="rgb(18,18,18)" fill-opacity="0.498039215686" points="216,48 212,74 220,57" /><polygon clip-path="url(#c)" fill="rgb(101,101,101)" fill-opacity="0.498039215686" points="12,100 26,79 46,92" /><polygon clip-path="url(#c)" fill="rgb(177,177,177)" fill-opacity="0.498039215686" points="81,43 90,75 95,55" /><polygon clip-path="url(#c)" fill="rgb(147,147,147)" fill-opacity="0.498039215686" points="114,12 72,36 90,8" /><polygon clip-path="url(#c)" fill="rgb(54,54,54)" fill-opacity="0.498039215686" points="104,9 120,-22 97,0" /><polygon clip-path="url(#c)" fill="rgb(71,71,71)" fill-opacity="0.498039215686" points="213,97 195,110 222,104" /><polygon clip-path="url(#c)" fill="rgb(186,186,186)" fill-opacity="0.498039215686" points="154,41 151,81 147,62" /><polygon clip-path="url(#c)" fill="rgb(117,117,117)" fill-opacity="0.498039215686" points="217,10 176,31 194,25" /><polygon clip-path="url(#c)" fill="rgb(151,151,151)" fill-opacity="0.498039215686" points="194,119 243,95 274,112" /><polygon clip-path="url(#c)" fill="rgb(22,22,22)" fill-opacity="0.498039215686" points="166,96 153,79 156,102" /><polygon clip-path="url(#c)" fill="rgb(14,14,14)" fill-opacity="0.498039215686" points="82,48 71,33 75,53" /><polygon clip-path="url(#c)" fill="rgb(80,80,80)" fill-opacity="0.498039215686" points="33,56 27,65 43,53" /><polygon clip-path="url(#c)" fill="rgb(151,151,151)" fill-opacity="0.498039215686" points="38,63 56,75 42,37" /><polygon clip-path="url(#c)" fill="rgb(120,120,120)" fill-opacity="0.498039215686" points="182,70 180,56 195,66" /><polygon clip-path="url(#c)" fill="rgb(42,42,42)" fill-opacity="0.498039215686" points="103,69 75,94 88,91" /><polygon clip-path="url(#c)" fill="rgb(209,209,209)" fill-opacity="0.498039215686" points="44,89 69,84 40,78" /><polygon clip-path="url(#c)" fill="rgb(142,142,142)" fill-opacity="0.498039215686" points="164,21 125,35 164,10" /><polygon clip-path="url(#c)" fill="rgb(138,138,138)" fill-opacity="0.498039215686" points="63,120 77,87 75,75" /><polygon clip-path="url(#c)" fill="rgb(141,141,141)" fill-opacity="0.498039215686" points="2,69 -11,28 5,52" /><polygon clip-path="url(#c)" fill="rgb(172,172,172)" fill-opacity="0.498039215686" points="37,61 57,36 38,47" /><polygon clip-path="url(#c)" fill="rgb(75,75,75)" fill-opacity="0.498039215686" points="215,36 231,52 228,38" /><polygon clip-path="url(#c)" fill="rgb(24,24,24)" fill-opacity="0.498039215686" points="229,42 236,53 255,50" /><polygon clip-path="url(#c)" fill="rgb(125,125,125)" fill-opacity="0.498039215686" points="142,100 133,106 100,74" /><polygon clip-path="url(#c)" fill="rgb(14,14,14)" fill-opacity="0.498039215686" points="65,37 53,46 55,64" /><polygon clip-path="url(#c)" fill="rgb(134,134,134)" fill-opacity="0.498039215686" points="232,66 258,66 268,50" /><polygon clip-path="url(#c)" fill="rgb(102,102,102)" fill-opacity="0.498039215686" points="162,-5 158,12 169,29" /><polygon clip-path="url(#c)" fill="rgb(93,93,93)" fill-opacity="0.498039215686" points="160,99 136,104 161,125" /><polygon clip-path="url(#c)" fill="rgb(224,224,224)" fill-opacity="0.498039215686" points="199,88 177,87 209,79" /><polygon clip-path="url(#c)" fill="rgb(131,131,131)" fill-opacity="0.498039215686" points="238,29 229,18 259,17" /><polygon clip-path="url(#c)" fill="rgb(141,141,141)" fill-opacity="0.498039215686" points="89,31 74,25 85,58" /><polygon clip-path="url(#c)" fill="rgb(89,89,89)" fill-opacity="0.498039215686" points="139,68 148,24 154,43" /><polygon clip-path="url(#c)" fill="rgb(202,202,202)" fill-opacity="0.498039215686" points="84,52 96,72 96,58" /><polygon clip-path="url(#c)" fill="rgb(12,12,12)" fill-opacity="0.498039215686" points="160,74 183,81 160,56" /><polygon clip-path="url(#c)" fill="rgb(15,15,15)" fill-opacity="0.498039215686" points="82,70 77,78 50,79" /><polygon clip-path="url(#c)" fill="rgb(204,204,204)" fill-opacity="0.498039215686" points="198,73 214,56 209,67" /><polygon clip-path="url(#c)" fill="rgb(102,102,102)" fill-opacity="0.498039215686" points="139,47 141,14 116,55" /><polygon clip-path="url(#c)" fill="rgb(177,177,177)" fill-opacity="0.498039215686" points="59,12 42,18 56,23" /><polygon clip-path="url(#c)" fill="rgb(117,117,117)" fill-opacity="0.498039215686" points="147,11 127,18 124,26" /><polygon clip-path="url(#c)" fill="rgb(196,196,196)" fill-opacity="0.498039215686" points="88,82 96,67 90,64" /><polygon clip-path="url(#c)" fill="rgb(25,25,25)" fill-opacity="0.498039215686" points="156,68 158,93 161,56" /><polygon clip-path="url(#c)" fill="rgb(63,63,63)" fill-opacity="0.498039215686" points="178,0 173,22 186,-6" /><polygon clip-path="url(#c)" fill="rgb(71,71,71)" fill-opacity="0.498039215686" points="218,98 232,86 240,74" /><polygon clip-path="url(#c)" fill="rgb(145,145,145)" fill-opacity="0.498039215686" points="238,54 239,72 243,54" /><polygon clip-path="url(#c)" fill="rgb(123,123,123)" fill-opacity="0.498039215686" points="25,62 31,70 27,55" /><polygon clip-path="url(#c)" fill="rgb(145,145,145)" fill-opacity="0.498039215686" points="19,73 -18,50 24,67" /><polygon clip-path="url(#c)" fill="rgb(108,108,108)" fill-opacity="0.498039215686" points="137,35 135,-6 124,58" /><polygon clip-path="url(#c)" fill="rgb(167,167,167)" fill-opacity="0.498039215686" points="189,12 178,1 197,4" /><polygon clip-path="url(#c)" fill="rgb(128,128,128)" fill-opacity="0.498039215686" points="94,80 96,65 113,102" /><polygon clip-path="url(#c)" fill="rgb(214,214,214)" fill-opacity="0.498039215686" points="58,81 73,89 58,96" /><polygon clip-path="url(#c)" fill="rgb(148,148,148)" fill-opacity="0.498039215686" points="76,26 66,14 54,14" /><polygon clip-path="url(#c)" fill="rgb(14,14,14)" fill-opacity="0.498039215686" points="45,34 30,30 53,21" /><polygon clip-path="url(#c)" fill="rgb(37,37,37)" fill-opacity="0.498039215686" points="83,10 67,5 87,-26" /><polygon clip-path="url(#c)" fill="rgb(137,137,137)" fill-opacity="0.498039215686" points="218,99 261,109 223,94" /><polygon clip-path="url(#c)" fill="rgb(71,71,71)" fill-opacity="0.498039215686" points="179,76 162,80 165,86" /><polygon clip-path="url(#c)" fill="rgb(202,202,202)" fill-opacity="0.498039215686" points="184,98 171,94 177,89" /><polygon clip-path="url(#c)" fill="rgb(194,194,194)" fill-opacity="0.498039215686" points="144,5 151,4 163,-19" /><polygon clip-path="url(#c)" fill="rgb(130,130,130)" fill-opacity="0.498039215686" points="42,19 54,18 62,26" /><polygon clip-path="url(#c)" fill="rgb(89,89,89)" fill-opacity="0.498039215686" points="214,88 202,102 212,85" /><polygon clip-path="url(#c)" fill="rgb(128,128,128)" fill-opacity="0.498039215686" points="208,60 192,70 206,41" /><polygon clip-path="url(#c)" fill="rgb(22,22,22)" fill-opacity="0.498039215686" points="221,41 213,28 200,28" /><polygon clip-path="url(#c)" fill="rgb(55,55,55)" fill-opacity="0.498039215686" points="225,9 225,6 212,11" /><polygon clip-path="url(#c)" fill="rgb(13,13,13)" fill-opacity="0.498039215686" points="186,55 195,48 180,34" /><polygon clip-path="url(#c)" fill="rgb(94,94,94)" fill-opacity="0.498039215686" points="25,-11 37,4 12,13" /><polygon clip-path="url(#c)" fill="rgb(89,89,89)" fill-opacity="0.498039215686" points="83,63 64,59 70,45" /><polygon clip-path="url(#c)" fill="rgb(120,120,120)" fill-opacity="0.498039215686" points="194,42 214,63 213,43" /><polygon clip-path="url(#c)" fill="rgb(158,158,158)" fill-opacity="0.498039215686" points="100,1 85,22 92,-8" /><polygon clip-path="url(#c)" fill="rgb(111,111,111)" fill-opacity="0.498039215686" points="55,-16 69,16 69,-5" /><polygon clip-path="url(#c)" fill="rgb(95,95,95)" fill-opacity="0.498039215686" points="22,98 23,103 32,103" /><polygon clip-path="url(#c)" fill="rgb(140,140,140)" fill-opacity="0.498039215686" points="171,31 144,-1 142,24" /><polygon clip-path="url(#c)" fill="rgb(80,80,80)" fill-opacity="0.498039215686" points="4,70 16,76 10,85" /><polygon clip-path="url(#c)" fill="rgb(117,117,117)" fill-opacity="0.498039215686" points="67,82 78,76 78,91" /><polygon clip-path="url(#c)" fill="rgb(6,6,6)" fill-opacity="0.498039215686" points="176,78 157,67 175,80" /><polygon clip-path="url(#c)" fill="rgb(79,79,79)" fill-opacity="0.498039215686" points="188,99 185,121 176,101" /><polygon clip-path="url(#c)" fill="rgb(118,118,118)" fill-opacity="0.498039215686" points="239,46 223,36 243,29" /></svg>